<svg width="24" height="24" viewBox="0 0 24 24" fill="none" xmlns="http://www.w3.org/2000/svg">
<path d="M15 5.24969C15.9946 5.24969 16.9484 5.64478 17.6517 6.34804C18.3549 7.05131 18.75 8.00513 18.75 8.99969V14.9997C18.75 15.9943 18.3549 16.9481 17.6517 17.6513C16.9484 18.3546 15.9946 18.7497 15 18.7497H9C8.00544 18.7497 7.05161 18.3546 6.34835 17.6513C5.64509 16.9481 5.25 15.9943 5.25 14.9997V8.99969C5.25 8.00513 5.64509 7.05131 6.34835 6.34804C7.05161 5.64478 8.00544 5.24969 9 5.24969H15ZM12 8.99969C11.2044 8.99969 10.4413 9.31577 9.87868 9.87837C9.31607 10.441 9 11.204 9 11.9997C9 12.7953 9.31607 13.5584 9.87868 14.121C10.4413 14.6836 11.2044 14.9997 12 14.9997C12.7956 14.9997 13.5587 14.6836 14.1213 14.121C14.6839 13.5584 15 12.7953 15 11.9997C15 11.204 14.6839 10.441 14.1213 9.87837C13.5587 9.31577 12.7956 8.99969 12 8.99969ZM12 10.4997C12.3978 10.4997 12.7794 10.6577 13.0607 10.939C13.342 11.2203 13.5 11.6019 13.5 11.9997C13.5 12.3975 13.342 12.7791 13.0607 13.0604C12.7794 13.3417 12.3978 13.4997 12 13.4997C11.6022 13.4997 11.2206 13.3417 10.9393 13.0604C10.658 12.7791 10.5 12.3975 10.5 11.9997C10.5 11.6019 10.658 11.2203 10.9393 10.939C11.2206 10.6577 11.6022 10.4997 12 10.4997ZM15.375 7.87469C15.1761 7.87469 14.9853 7.95371 14.8447 8.09436C14.704 8.23502 14.625 8.42578 14.625 8.62469C14.625 8.82361 14.704 9.01437 14.8447 9.15502C14.9853 9.29568 15.1761 9.37469 15.375 9.37469C15.5739 9.37469 15.7647 9.29568 15.9053 9.15502C16.046 9.01437 16.125 8.82361 16.125 8.62469C16.125 8.42578 16.046 8.23502 15.9053 8.09436C15.7647 7.95371 15.5739 7.87469 15.375 7.87469Z" fill="#808080"/>
</svg>
