<svg width="24" height="24" viewBox="0 0 24 24" fill="none" xmlns="http://www.w3.org/2000/svg">
<g clip-path="url(#clip0_422_421)">
<path fill-rule="evenodd" clip-rule="evenodd" d="M7.65342 11.794L10.751 13.295C10.8814 13.3584 10.9892 13.4602 11.0599 13.5867C11.1306 13.7133 11.1608 13.8585 11.1463 14.0027C11.1311 14.1471 11.0716 14.2832 10.9761 14.3926C10.8806 14.5019 10.7536 14.5791 10.6126 14.6135L7.26663 15.4418C7.11873 15.4776 6.96329 15.4655 6.82272 15.4072C6.68215 15.3489 6.56371 15.2475 6.4845 15.1176C6.43316 15.0311 6.4004 14.9348 6.3883 14.8349C6.28627 13.9474 6.38167 13.0483 6.66768 12.2019C6.70007 12.1067 6.75246 12.0195 6.82133 11.9462C6.8902 11.8729 6.97396 11.8152 7.06698 11.7769C7.16034 11.7389 7.2606 11.7208 7.36135 11.7238C7.4621 11.7267 7.56112 11.7507 7.6521 11.794M8.8935 18.1295L11.1997 15.5854C11.2975 15.4774 11.426 15.402 11.568 15.3693C11.71 15.3367 11.8586 15.3484 11.9937 15.4029C12.1279 15.4575 12.2423 15.5517 12.3215 15.6729C12.4008 15.7942 12.4411 15.9368 12.4372 16.0816L12.3166 19.5047C12.3129 19.6054 12.2878 19.7041 12.2428 19.7942C12.1977 19.8844 12.1339 19.9638 12.0556 20.0272C11.9771 20.0909 11.8859 20.1371 11.788 20.1628C11.6902 20.1885 11.588 20.193 11.4883 20.1761C10.6029 20.0282 9.76026 19.6896 9.01869 19.1838C8.93541 19.127 8.86526 19.0531 8.81297 18.9669C8.76069 18.8808 8.72748 18.7844 8.71559 18.6843C8.704 18.5845 8.71387 18.4834 8.74455 18.3877C8.77524 18.292 8.82602 18.204 8.8935 18.1295ZM14.3612 14.7433L17.6393 15.8016C17.7351 15.8326 17.8233 15.8837 17.8979 15.9514C17.9726 16.0191 18.032 16.1019 18.0722 16.1943C18.1124 16.2865 18.1322 16.3862 18.1302 16.4867C18.1283 16.5873 18.1047 16.6862 18.061 16.7768C17.6736 17.5835 17.1143 18.2955 16.4223 18.8629C16.3442 18.9271 16.2533 18.974 16.1557 19.0004C16.0581 19.0268 15.956 19.0321 15.8561 19.0161C15.7563 19 15.661 18.9629 15.5766 18.9071C15.4923 18.8514 15.4207 18.7784 15.3667 18.6929L13.5395 15.7884C13.4624 15.6658 13.4251 15.5223 13.4328 15.3777C13.4405 15.233 13.4927 15.0943 13.5823 14.9806C13.6723 14.8661 13.7952 14.782 13.9345 14.7396C14.0738 14.6972 14.2227 14.6985 14.3612 14.7433ZM17.6946 12.6664L14.381 13.6107C14.241 13.6503 14.0923 13.6463 13.9546 13.5992C13.817 13.5521 13.697 13.4642 13.6107 13.3471C13.5251 13.2302 13.4779 13.0896 13.4754 12.9447C13.4729 12.7998 13.5153 12.6578 13.5968 12.538L15.5248 9.69934C15.5814 9.6161 15.655 9.5458 15.7408 9.4931C15.8265 9.4404 15.9225 9.40648 16.0223 9.3936C16.1223 9.38136 16.2238 9.39009 16.3202 9.41925C16.4166 9.4484 16.5059 9.49734 16.5824 9.56295C17.2567 10.1522 17.792 10.8836 18.15 11.7044C18.1905 11.7968 18.2107 11.8968 18.2092 11.9977C18.2078 12.0986 18.1847 12.198 18.1415 12.2892C18.0984 12.3804 18.0362 12.4613 17.9591 12.5263C17.882 12.5914 17.7918 12.6392 17.6946 12.6664ZM9.95238 4.68037C9.36671 4.83551 8.79654 5.04416 8.24908 5.30371C8.16109 5.34582 8.08269 5.40556 8.01876 5.47924C7.95483 5.55292 7.90673 5.63896 7.87745 5.732C7.84851 5.82477 7.83924 5.92256 7.85025 6.01912C7.86125 6.11567 7.89229 6.20887 7.94136 6.29274L11.1799 11.8645C11.2583 11.9996 11.379 12.1051 11.5234 12.1646C11.6678 12.224 11.8278 12.2341 11.9785 12.1933C12.1295 12.1543 12.2631 12.0662 12.3584 11.9428C12.4537 11.8195 12.5053 11.6679 12.505 11.512V5.07836C12.5056 4.93147 12.46 4.78811 12.3748 4.66848C12.2896 4.54885 12.169 4.45898 12.0299 4.41154C11.9375 4.37972 11.8395 4.36695 11.742 4.37398C11.1371 4.42142 10.5388 4.52421 9.95304 4.68037" fill="#808080"/>
</g>
<defs>
<clipPath id="clip0_422_421">
<rect width="15.814" height="15.814" fill="white" transform="translate(4.37207 4.37209)"/>
</clipPath>
</defs>
</svg>
